<?xml version="1.0" encoding="UTF-8" standalone="no"?>
<!-- Created with Inkscape (http://www.inkscape.org/) -->

<svg
   xmlns:dc="http://purl.org/dc/elements/1.1/"
   xmlns:cc="http://creativecommons.org/ns#"
   xmlns:rdf="http://www.w3.org/1999/02/22-rdf-syntax-ns#"
   xmlns:svg="http://www.w3.org/2000/svg"
   xmlns="http://www.w3.org/2000/svg"
   xmlns:sodipodi="http://sodipodi.sourceforge.net/DTD/sodipodi-0.dtd"
   xmlns:inkscape="http://www.inkscape.org/namespaces/inkscape"
   width="79.275589mm"
   height="91.539566mm"
   viewBox="0 0 79.275589 91.539566"
   version="1.1"
   id="svg8"
   inkscape:version="0.92.4 (5da689c313, 2019-01-14)"
   sodipodi:docname="numpy-logo.svg"
   inkscape:export-filename="/home/stefan/projekte/numpy-logo/numpy-logo.png"
   inkscape:export-xdpi="99.991302"
   inkscape:export-ydpi="99.991302">
  <defs
     id="defs2" />
  <sodipodi:namedview
     id="base"
     pagecolor="#ffffff"
     bordercolor="#666666"
     borderopacity="1.0"
     inkscape:pageopacity="0.0"
     inkscape:pageshadow="2"
     inkscape:zoom="1.4"
     inkscape:cx="48.556267"
     inkscape:cy="136.09109"
     inkscape:document-units="mm"
     inkscape:current-layer="layer1"
     showgrid="true"
     fit-margin-top="0"
     fit-margin-left="0"
     fit-margin-right="0"
     fit-margin-bottom="0"
     inkscape:window-width="2556"
     inkscape:window-height="1381"
     inkscape:window-x="0"
     inkscape:window-y="28"
     inkscape:window-maximized="0">
    <inkscape:grid
       type="axonomgrid"
       id="grid853"
       units="mm"
       empspacing="5"
       originx="-51.483865"
       originy="-71.443015" />
  </sodipodi:namedview>
  <metadata
     id="metadata5">
    <rdf:RDF>
      <cc:Work
         rdf:about="">
        <dc:format>image/svg+xml</dc:format>
        <dc:type
           rdf:resource="http://purl.org/dc/dcmitype/StillImage" />
        <dc:title></dc:title>
      </cc:Work>
    </rdf:RDF>
  </metadata>
  <g
     inkscape:label="Layer 1"
     inkscape:groupmode="layer"
     id="layer1"
     transform="translate(-51.483864,-134.01742)">
    <path
       sodipodi:type="star"
       style="fill:none;fill-opacity:1;stroke:#000000;stroke-width:1;stroke-linecap:square;stroke-linejoin:miter;stroke-miterlimit:4;stroke-dasharray:none;stroke-dashoffset:0;stroke-opacity:1;paint-order:stroke fill markers"
       id="path835"
       sodipodi:sides="6"
       sodipodi:cx="91.121658"
       sodipodi:cy="179.7872"
       sodipodi:r1="45.192432"
       sodipodi:r2="47.300194"
       sodipodi:arg1="0.52359878"
       sodipodi:arg2="1.0471976"
       inkscape:flatsided="true"
       inkscape:rounded="0"
       inkscape:randomized="0"
       d="m 130.25945,202.38342 -39.137792,22.59621 -39.137794,-22.59621 0,-45.19244 39.137795,-22.59621 39.137791,22.59621 z"
       inkscape:transform-center-y="-1.7631608e-06" />
    <path
       style="fill:none;fill-rule:evenodd;stroke:#000000;stroke-width:0.26458332px;stroke-linecap:butt;stroke-linejoin:miter;stroke-opacity:1"
       d="M 64.951906,159.5 86.60254,172 77.942286,177 56.291651,164.5 Z"
       id="path4558"
       inkscape:connector-curvature="0"
       sodipodi:nodetypes="ccccc" />
    <path
       style="fill:none;fill-rule:evenodd;stroke:#000000;stroke-width:0.26458332px;stroke-linecap:butt;stroke-linejoin:miter;stroke-opacity:1"
       d="m 95.262794,172 8.660256,5 21.65063,-12.5 -8.66025,-5 -21.650636,12.5"
       id="path4560"
       inkscape:connector-curvature="0" />
    <path
       style="fill:#a479d4;fill-opacity:1;fill-rule:evenodd;stroke:#000000;stroke-width:0.26458332px;stroke-linecap:butt;stroke-linejoin:miter;stroke-opacity:1"
       d="M 90.932666,169.5 112.5833,157 90.932666,144.5 69.282031,157 Z"
       id="path4562"
       inkscape:connector-curvature="0" />
    <path
       style="fill:none;fill-rule:evenodd;stroke:#000000;stroke-width:0.26458332px;stroke-linecap:butt;stroke-linejoin:miter;stroke-opacity:1"
       d="m 86.60254,172 v 30 l -8.660254,5 v -30"
       id="path4564"
       inkscape:connector-curvature="0" />
    <path
       style="fill:none;fill-rule:evenodd;stroke:#000000;stroke-width:0.26458332px;stroke-linecap:butt;stroke-linejoin:miter;stroke-opacity:1"
       d="M 77.942286,207 56.291651,194.5 v -30"
       id="path4566"
       inkscape:connector-curvature="0" />
    <path
       style="fill:none;fill-rule:evenodd;stroke:#000000;stroke-width:0.26458332px;stroke-linecap:butt;stroke-linejoin:miter;stroke-opacity:1"
       d="m 95.262794,172 v 30 l 8.660256,5 v -30 0"
       id="path4568"
       inkscape:connector-curvature="0" />
    <path
       style="fill:none;fill-rule:evenodd;stroke:#000000;stroke-width:0.26458332px;stroke-linecap:butt;stroke-linejoin:miter;stroke-opacity:1"
       d="m 103.92305,207 21.65063,-12.5 v -30"
       id="path4570"
       inkscape:connector-curvature="0" />
    <path
       style="fill:none;fill-rule:evenodd;stroke:#000000;stroke-width:0.26458332px;stroke-linecap:butt;stroke-linejoin:miter;stroke-opacity:1"
       d="m 90.932666,169.5 v 30 l 4.330128,-2.5"
       id="path4572"
       inkscape:connector-curvature="0" />
    <path
       style="fill:none;fill-rule:evenodd;stroke:#000000;stroke-width:0.26458332px;stroke-linecap:butt;stroke-linejoin:miter;stroke-opacity:1"
       d="M 90.932666,199.5 86.60254,197"
       id="path4574"
       inkscape:connector-curvature="0" />
    <path
       style="fill:none;fill-rule:evenodd;stroke:#000000;stroke-width:0.26458332px;stroke-linecap:butt;stroke-linejoin:miter;stroke-opacity:1"
       d="m 69.282031,157 v 5"
       id="path4576"
       inkscape:connector-curvature="0" />
    <path
       style="fill:none;fill-rule:evenodd;stroke:#000000;stroke-width:0.26458332px;stroke-linecap:butt;stroke-linejoin:miter;stroke-opacity:1"
       d="m 112.5833,157 v 5"
       id="path4578"
       inkscape:connector-curvature="0" />
    <path
       style="fill:#9866cf;fill-opacity:1;stroke:#000000;stroke-width:0.71428573;stroke-linecap:square;stroke-linejoin:miter;stroke-miterlimit:4;stroke-dasharray:none;stroke-dashoffset:0;stroke-opacity:1;paint-order:stroke fill markers"
       d="m 344.60087,696.8334 0.18294,-55.83912 38.92857,-22.50396 c 21.41071,-12.37718 39.34089,-22.67258 39.84483,-22.87867 0.72147,-0.29504 0.87332,1.42141 0.71429,8.07353 l -0.20198,8.44824 -32.30347,18.60145 -32.30346,18.60145 -0.018,47.28992 -0.018,47.28992 -5.17857,2.98323 c -2.84821,1.64078 -6.22518,3.61096 -7.50437,4.37818 l -2.32579,1.39495 z"
       id="path4582"
       inkscape:connector-curvature="0"
       transform="scale(0.26458333)" />
    <path
       style="fill:#7e3fc3;fill-opacity:1;stroke:#000000;stroke-width:0.71428573;stroke-linecap:square;stroke-linejoin:miter;stroke-miterlimit:4;stroke-dasharray:none;stroke-dashoffset:0;stroke-opacity:1;paint-order:stroke fill markers"
       d="m 335.30974,748.19223 -7.3312,-4.2974 0.0298,-47.19507 0.0298,-47.19508 -32.34144,-18.68121 -32.34144,-18.68121 -0.20123,-8.36725 c -0.11069,-4.60199 -0.038,-8.36726 0.16143,-8.36726 0.44583,0 78.39754,44.96389 79.15136,45.65587 0.29707,0.2727 0.45779,25.45511 0.35714,55.96091 l -0.18298,55.46509 z"
       id="path4584"
       inkscape:connector-curvature="0"
       transform="scale(0.26458333)" />
    <path
       style="fill:#73bdd9;fill-opacity:1;stroke:#000000;stroke-width:0.71428573;stroke-linecap:square;stroke-linejoin:miter;stroke-miterlimit:4;stroke-dasharray:none;stroke-dashoffset:0;stroke-opacity:1;paint-order:stroke fill markers"
       d="m 254.26332,644.81203 c -21.50055,-12.44021 -39.09876,-22.81589 -39.10714,-23.05707 -0.008,-0.24118 6.33298,-4.0788 14.09191,-8.52805 7.75893,-4.44926 14.59531,-8.38104 15.19195,-8.7373 0.80226,-0.47903 11.22065,5.20056 40,21.80601 21.40336,12.34957 39.45099,22.74654 40.10587,23.10437 0.93391,0.51032 -2.08876,2.53751 -14.0169,9.40062 -8.36418,4.8125 -15.64998,8.72299 -16.19068,8.68999 -0.5407,-0.033 -18.57446,-10.23836 -40.07501,-22.67857 z"
       id="path4586"
       inkscape:connector-curvature="0"
       transform="scale(0.26458333)" />
    <path
       style="fill:#39a1c9;fill-opacity:1;stroke:#000000;stroke-width:0.71428573;stroke-linecap:square;stroke-linejoin:miter;stroke-miterlimit:4;stroke-dasharray:none;stroke-dashoffset:0;stroke-opacity:1;paint-order:stroke fill markers"
       d="m 253.35523,757.60266 -39.28571,-22.73681 -0.18293,-55.81742 -0.18293,-55.81741 3.42296,1.98122 c 1.88262,1.08967 19.87732,11.46337 39.98822,23.05265 l 36.56527,21.07143 0.0161,55.53572 c 0.009,30.54464 -0.22494,55.52035 -0.51958,55.50157 -0.29464,-0.0188 -18.21429,-10.2657 -39.82143,-22.77095 z"
       id="path4588"
       inkscape:connector-curvature="0"
       transform="scale(0.26458333)" />
    <path
       style="fill:#60b4d4;fill-opacity:1;stroke:#000000;stroke-width:0.71428573;stroke-linecap:square;stroke-linejoin:miter;stroke-miterlimit:4;stroke-dasharray:none;stroke-dashoffset:0;stroke-opacity:1;paint-order:stroke fill markers"
       d="m 295.31518,725.23571 0.18291,-55.80854 15.2433,-8.79543 c 8.38382,-4.83748 15.37489,-8.79542 15.53572,-8.79542 0.16082,0 0.29241,24.99597 0.29241,55.54659 v 55.5466 l -15.71863,9.05737 -15.71863,9.05737 z"
       id="path4590"
       inkscape:connector-curvature="0"
       transform="scale(0.26458333)" />
    <path
       style="fill:#ffc34d;fill-opacity:1;stroke:#000000;stroke-width:0.71428573;stroke-linecap:square;stroke-linejoin:miter;stroke-miterlimit:4;stroke-dasharray:none;stroke-dashoffset:0;stroke-opacity:1;paint-order:stroke fill markers"
       d="m 376.8047,658.80011 c -11.91549,-6.89425 -14.86891,-8.88879 -13.92857,-9.40637 0.65636,-0.36128 18.69773,-10.76293 40.09193,-23.11477 29.21873,-16.86931 39.17263,-22.2928 40,-21.79444 0.6058,0.36491 7.44967,4.30486 15.2086,8.75545 7.75893,4.4506 14.09992,8.28583 14.0911,8.52274 -0.0223,0.59804 -77.81049,45.38894 -79.20872,45.60882 -0.62281,0.0979 -7.93726,-3.7592 -16.25434,-8.57143 z"
       id="path4592"
       inkscape:connector-curvature="0"
       transform="scale(0.26458333)" />
    <path
       style="fill:#ffaa03;fill-opacity:1;stroke:#000000;stroke-width:0.71428573;stroke-linecap:square;stroke-linejoin:miter;stroke-miterlimit:4;stroke-dasharray:none;stroke-dashoffset:0;stroke-opacity:1;paint-order:stroke fill markers"
       d="m 376.39095,771.89666 -15.53572,-8.94981 v -55.55527 c 0,-30.55539 0.12855,-55.55526 0.28565,-55.55526 0.43582,0 29.99443,17.14898 30.61162,17.7599 0.29707,0.29405 0.45779,25.44565 0.35715,55.89244 l -0.18299,55.35781 z"
       id="path4594"
       inkscape:connector-curvature="0"
       transform="scale(0.26458333)" />
    <path
       style="fill:#ffbb35;fill-opacity:1;stroke:#000000;stroke-width:0.71428573;stroke-linecap:square;stroke-linejoin:miter;stroke-miterlimit:4;stroke-dasharray:none;stroke-dashoffset:0;stroke-opacity:1;paint-order:stroke fill markers"
       d="m 393.72474,724.94846 0.0124,-55.61214 36.56021,-21.07143 c 20.10812,-11.58928 38.10452,-21.96298 39.99199,-23.05265 l 3.43178,-1.98122 -0.18293,55.81506 -0.18293,55.81507 -38.92857,22.4899 c -21.41071,12.36944 -39.33035,22.65182 -39.82143,22.84972 -0.70978,0.28604 -0.89032,-11.04298 -0.88049,-55.25231 z"
       id="path4596"
       inkscape:connector-curvature="0"
       transform="scale(0.26458333)" />
    <path
       style="fill:#9866cf;fill-opacity:1;stroke:#000000;stroke-width:0.71428573;stroke-linecap:square;stroke-linejoin:miter;stroke-miterlimit:4;stroke-dasharray:none;stroke-dashoffset:0;stroke-opacity:1;paint-order:stroke fill markers"
       d="m 344.88688,696.65775 c 0.23998,-30.34821 0.63639,-55.39808 0.88091,-55.66637 0.70757,-0.77633 77.01227,-44.86934 77.64817,-44.86934 0.16303,0 0.28664,3.61607 0.27468,8.03571 l -0.0217,8.03571 -31.94255,18.34181 -31.94255,18.34182 -0.18359,47.39125 -0.18358,47.39127 -7.03996,4.08835 c -3.87198,2.2486 -7.23935,4.08836 -7.48304,4.08836 -0.24369,0 -0.24673,-24.83036 -0.007,-55.17857 z"
       id="path4598"
       inkscape:connector-curvature="0"
       transform="scale(0.26458333)" />
  </g>
</svg>
